PathFileType	4	(X/Y/Z)	C:/Users/beibeiliu/ov580/test_trc/User3\sequence.22_training_dense_left.trc
DataRate	CameraRate	NumFrames	NumMarkers	Units	OrigDataRate	OrigDataStartFrame	OrigNumFrames
120	120	17	19	mm	120	54	106
Frame#	Time	ThumbCMC			ThumbMCP			ThumbIP			ThumbTip			IndexMCP			IndexPIP			IndexTip			MiddleMCP			MiddlePIP			MiddleTip			RingMCP			RingPIP			RingTip			PinkyMCP			PinkyPIP			PinkyTip			BackHand1			BackHand2			BackHand3	
		X0	Y0	Z0	X1	Y1	Z1	X2	Y2	Z2	X3	Y3	Z3	X4	Y4	Z4	X5	Y5	Z5	X6	Y6	Z6	X7	Y7	Z7	X8	Y8	Z8	X9	Y9	Z9	X10	Y10	Z10	X11	Y11	Z11	X12	Y12	Z12	X13	Y13	Z13	X14	Y14	Z14	X15	Y15	Z15	X16	Y16	Z16	X17	Y17	Z17	X18	Y18	Z18	
53	0.441667	-163.307	46.4277	11.6678	-141.338	66.4848	-6.94375	-116.611	80.2321	-21.0721	-97.1557	85.4287	-24.7117	-98.2255	50.6517	-27.101	-88.2459	74.6687	-5.01812	-113.147	67.536	12.8689	-85.1264	45.9513	-13.493	-85.6954	63.5476	14.2312	-118.169	43.6391	23.4005	-81.5426	31.7391	-0.307379	-79.5292	48.3931	24.4277	-109.451	43.8408	36.6563	-79.247	8.27343	5.12768	-59.7619	22.7561	2.82032	-40.7052	34.636	2.14211	-127.32	-10.7331	5.64459	-149.45	-15.5736	22.7348	-154.157	13.445	-6.0288	
54	0.45	-162.249	31.6865	6.08838	-148.463	50.1656	-10.5866	-127.077	65.0114	-30.3802	-108.145	72.3707	-37.5663	-103.184	39.0093	-35.3609	-95.9327	66.8611	-15.0739	-118.075	57.0302	3.48714	-86.8977	32.6469	-20.9959	-90.4196	56.738	2.49358	-119.798	34.5299	15.9121	-80.4384	21.3256	-6.02848	-80.2866	43.6431	16.6737	-108.372	36.2169	28.0435	-75.1035	3.83593	-1.52399	-59.4938	17.3324	-6.86505	-43.6537	33.3161	-11.5481	-121.104	-20.1912	5.27063	-141.156	-25.3687	29.7358	-152.883	-0.725306	-2.04877	
55	0.458333	-156.119	10.5343	7.70024	-146.289	26.45	-19.2334	-129.235	35.1052	-39.9344	-114.598	45.4202	-58.1289	-105.89	10.4414	-44.8523	-95.8035	41.7182	-34.8987	-115.005	36.9459	-8.88604	-89.242	10.463	-34.7519	-87.9833	39.5453	-16.4176	-109.52	20.9693	8.05909	-80.9958	0.981672	-19.8277	-76.5367	29.9999	-0.153427	-100.779	22.7258	17.4212	-70.9781	-16.68	-9.02882	-59.6653	-4.18894	-20.5541	-39.0971	12.7523	-31.8775	-116.043	-35.3504	7.08497	-131.894	-38.5518	30.7743	-148.842	-24.5344	3.68797	
56	0.466667	-147.37	-11.4235	9.15231	-141.538	-0.558949	-18.7408	-130.155	5.12141	-46.0665	-118.804	11.5338	-63.3844	-103.491	-16.2602	-49.5739	-95.8758	15.1854	-47.387	-110.538	17.8461	-19.3577	-83.7708	-14.7343	-40.5201	-81.7565	15.2078	-26.2747	-101.553	-0.234782	3.36282	-73.7903	-21.5687	-23.1893	-69.7624	10.112	-11.5978	-94.3418	5.70315	9.31995	-66.6516	-36.787	-9.19332	-54.4385	-27.6166	-26.0654	-37.4092	-13.9387	-43.365	-98.7379	-56.3678	11.5201	-115.18	-56.0721	42.7403	-136.146	-43.4811	8.1928	
57	0.475	-140.53	-25.7556	20.7092	-136.092	-18.9082	-8.54236	-125.053	-16.3182	-38.9762	-117.037	-11.4871	-58.2068	-100.721	-31.738	-46.3238	-93.7101	-2.09482	-45.9973	-108.508	0.855533	-16.9572	-79.8702	-30.53	-37.8007	-78.6565	0.059241	-31.7946	-97.9918	-12.5948	4.21791	-68.0727	-30.1503	-24.5435	-68.1472	-0.296634	-16.954	-86.6424	-2.8364	7.94227	-58.0131	-46.7261	-7.31561	-45.6875	-37.9158	-27.9802	-35.7551	-28.6842	-44.9468	-89.2505	-64.1492	21.2981	-105.328	-64.1192	47.1523	-126.231	-58.987	20.289	
58	0.483333	-143.067	-35.5673	27.5506	-136.885	-29.4117	-1.64562	-132.811	-26.1858	-29.8003	-123.305	-22.7654	-53.6685	-103.927	-43.8072	-38.5544	-99.972	-12.1749	-44.4457	-112.318	-9.10088	-10.3466	-83.0217	-38.5845	-31.5592	-86.708	-4.75482	-24.9627	-101.324	-18.8494	8.48165	-69.208	-37.8882	-18.9537	-71.2126	-5.67084	-14.4037	-88.4907	-7.77158	10.6077	-56.3177	-49.2539	-4.52721	-50.613	-41.1596	-24.4794	-41.4054	-28.9467	-46.0872	-87.3809	-69.0311	23.451	-96.3529	-67.6241	56.2573	-120.101	-67.879	27.5183	
59	0.491667	-147.366	-38.8822	35.8146	-144.244	-34.1281	4.86129	-141.689	-32.4186	-23.978	-132.035	-29.7438	-47.4172	-114.669	-47.6387	-37.59	-117.165	-16.206	-40.6909	-121.031	-12.4878	-11.4836	-91.7483	-40.4586	-31.2685	-97.7483	-9.93495	-27.9479	-104.921	-20.5607	9.77934	-77.2696	-38.4129	-20.1948	-83.6798	-8.32727	-15.6689	-96.7546	-13.2715	15.5932	-63.8333	-49.5154	-2.01517	-57.6245	-41.2661	-28.78	-55.0019	-31.3009	-45.4084	-85.9874	-69.5446	33.6511	-93.784	-68.2542	61.0749	-125.677	-70.6064	34.2336	
60	0.5	-155.268	-37.4174	41.8585	-155.45	-37.2034	11.4082	-157.405	-40.8664	-22.303	-150.715	-41.523	-42.0047	-131.408	-59.6317	-27.4295	-130.008	-29.0899	-42.1992	-133.113	-18.6421	-7.43198	-113.334	-51.2056	-30.0298	-112.584	-20.0694	-30.5112	-121.351	-25.2499	11.509	-93.1277	-48.2371	-20.7564	-94.3841	-16.9204	-20.1227	-107.058	-14.8967	8.83953	-80.0078	-57.3651	-5.13441	-74.5955	-53.8206	-29.03	-72.2416	-48.1924	-51.151	-98.6145	-71.582	31.9005	-102.971	-63.7136	65.3172	-129.774	-67.667	42.8333	
61	0.508333	-166.303	-28.5777	44.2705	-172.348	-31.1355	14.8349	-178.739	-37.4367	-13.6461	-178.347	-44.022	-38.6192	-154.042	-64.1115	-21.4721	-150.854	-35.1447	-40.1902	-151.89	-18.785	-9.89066	-136.191	-57.3016	-27.7431	-130.609	-26.2922	-28.9419	-133.435	-26.6899	10.2926	-113.23	-57.6742	-19.0216	-113.798	-26.7391	-24.851	-117.403	-19.6971	8.6987	-99.5573	-69.3793	-8.22745	-101.652	-68.1561	-31.775	-103.565	-62.8819	-53.1966	-115.607	-72.6545	34.7728	-115.171	-60.4304	63.7521	-151.541	-62.4216	51.3354	
62	0.516667	-174.146	-10.0109	47.7342	-185.801	-15.3303	16.779	-194.763	-19.4911	-6.68596	-200.602	-28.809	-31.7027	-185.558	-51.9739	-17.84	-176.509	-28.7447	-37.5116	-162.453	-12.5738	-8.33325	-165.965	-54.2215	-21.5068	-152.953	-23.6984	-28.4615	-145.036	-21.9172	8.9788	-143.922	-58.512	-18.5534	-135.885	-31.0106	-26.8609	-132.689	-19.6491	7.47744	-133.634	-73.6442	-5.00768	-136.793	-74.4846	-29.0903	-139.661	-72.5383	-53.5313	-144.849	-67.6944	43.6483	-136.814	-54.2793	66.4995	-169.526	-47.0172	55.1402	
63	0.525	-173.162	10.423	47.805	-188.061	12.8246	20.4925	-202.122	11.0001	-3.84862	-211.26	5.30539	-27.246	-207.789	-21.0387	-12.1917	-189.113	-3.75357	-33.7806	-169.9	6.03743	-7.61267	-189.788	-32.4954	-20.0896	-168.485	-11.8613	-29.3933	-158.127	-8.13499	9.74909	-174.774	-45.5895	-13.8092	-154.03	-23.1314	-25.8238	-142.285	-14.6714	3.82076	-169.724	-61.2382	-1.00327	-174.183	-62.9587	-26.3562	-180.432	-55.9614	-49.8569	-173.181	-51.8041	43.6753	-153.912	-48.4899	68.786	-186.93	-24.1298	57.1384	
64	0.533333	-165.326	27.4677	46.6854	-174.866	40.7161	21.652	-194.931	47.3874	-6.02605	-202.057	43.8644	-25.7294	-210.928	17.8406	-13.7091	-185.669	26.3936	-33.5268	-165.256	28.3767	-10.6501	-201.826	2.83858	-19.2001	-169.548	8.71354	-28.4688	-158.79	4.97053	9.1666	-192.283	-19.2541	-18.0472	-165.045	-8.91544	-28.4646	-149.374	-3.08514	1.79488	-195.748	-32.6328	-3.84605	-202.188	-30.9321	-27.5045	-204.398	-28.7701	-50.2736	-192.275	-27.9974	42.3558	-172.015	-29.401	64.9387	-188.526	5.16764	56.0371	
65	0.541667	-150.952	42.2809	44.1872	-160.488	59.2284	17.3389	-167.544	69.8729	-4.61891	-179.785	74.7937	-26.4085	-198.59	53.829	-10.1138	-173.393	48.856	-34.7497	-151.553	38.8111	-10.0591	-196.12	35.162	-20.5198	-166.179	24.9136	-31.1867	-154.683	15.4453	2.38269	-195.519	15.6406	-18.7603	-166.887	9.96669	-29.603	-150.604	4.66188	-1.87752	-206.908	1.42383	-8.16263	-211.545	2.20793	-29.9046	-212.365	13.6938	-50.4584	-197.668	1.91949	41.4169	-185.195	-9.02908	61.9442	-183.452	27.8515	55.853	
66	0.55	-133.844	47.5991	39.0712	-134.113	65.2261	14.1433	-142.925	78.8748	-11.7385	-150.814	86.7376	-33.7209	-175.948	74.6905	-13.7406	-156.553	61.297	-39.805	-139.208	43.2898	-15.9164	-183.942	53.7904	-24.5279	-158.803	39.4595	-37.5741	-150.618	23.1211	1.12197	-190.963	36.219	-21.4388	-169.113	18.5661	-34.5639	-151.158	10.2816	-9.46744	-207.29	25.6353	-6.14971	-208.703	32.5869	-29.0481	-211.949	35.9692	-52.8251	-194.746	29.0568	40.5742	-184.201	12.8751	59.0792	-169.439	47.124	53.1708	
67	0.558333	-119.473	39.8534	29.8433	-115.97	51.0704	1.98857	-119.914	65.4344	-26.7322	-133.071	68.9179	-48.2357	-157.684	70.911	-25.0248	-144.081	52.1334	-48.8251	-131.011	31.9156	-24.7991	-171.107	54.4529	-30.1837	-154.065	28.8346	-42.2165	-147.894	17.1714	-6.57058	-183.598	42.0374	-26.2389	-166.706	16.7148	-37.2695	-152.596	7.21293	-10.5971	-202.377	39.812	-14.018	-205.586	43.1985	-36.3355	-204.709	46.3575	-60.3147	-185.548	42.5804	35.4282	-176.608	26.2583	54.4845	-152.881	51.4765	43.5737	
68	0.566667	-111.865	23.3189	20.8137	-106.133	29.6944	-10.0951	-111.069	37.0607	-36.529	-120.831	40.4179	-62.1262	-145.016	54.7724	-40.9117	-138.428	26.0266	-57.149	-133.197	13.3102	-28.8953	-164.032	42.5443	-41.0321	-155.121	13.142	-49.2486	-144.035	6.51769	-12.0555	-177.036	35.4081	-32.6148	-168.69	5.56167	-42.1027	-157.948	-5.29629	-13.6748	-199.058	36.9419	-18.465	-200.376	39.4959	-41.7905	-200.975	39.4028	-64.0664	-175.526	44.7445	23.3912	-172.247	29.6266	50.6709	-143.038	45.093	31.2592	
69	0.575	-112.547	11.4221	16.0323	-107.133	12.3349	-18.0574	-108.96	13.9433	-47.2181	-118.623	11.1683	-69.5693	-138.656	33.5478	-52.988	-138.194	1.87844	-60.1208	-132.573	-2.70877	-29.8886	-162.077	21.1048	-50.5229	-156.386	-8.17367	-50.7869	-144.586	-4.2103	-11.1395	-178.362	17.3472	-38.8302	-173.025	-11.851	-42.3125	-156.118	-15.3521	-12.8454	-195.898	27.4943	-25.8046	-198.106	24.784	-47.5149	-203.797	20.0437	-67.2944	-171.083	40.0279	17.9659	-166.436	28.6361	46.6564	-136.77	38.7604	21.8065	
